<svg xmlns="http://www.w3.org/2000/svg" viewBox="118.9 15.6 499.9 792" class="j-logo">
	<g class="j-text">
		<path fill="#24D887" d="M575.4 15.8c7.1 0 12.4 5.3 12.4 12.4s-5.3 12.4-12.4 12.4h-41.1v417.1c0 101.3-79.5 183.7-179.2 183.7-95.3 0-172.1-72.6-179.2-166.1v-1.9c0-7.1 6-12.4 12.4-12.4h.8c7.1 0 12.4 5.3 13.2 12.4 6 79.5 72.6 141.6 152.9 141.6 14.7 0 29.7-1.9 42.9-6V40.3h-41.8c-7.1 0-12.4-5.3-12.4-12.4s5.3-12.4 12.4-12.4l219.1.3z"/>
	</g>
	<g class="jc-hameleon">
		<path fill="#272727" d="M617.2 486.8c-3.4-19.8-9.8-39-16-62.9-18.2 45-43.3 62.1-74.7 55.2-28.6-6.2-49.3-33.5-47.1-62.1 2.6-32.6 26.7-53.2 65.5-56.1-33.7-21.3-105-63.8-117.7-49.3-2.4 2.6-3.6 8.9-6 21.1-2.4 11.5-3 21.3-3.4 28.3v10.1c-7.9-26.5-16-33-22.2-33.7-7.1-.8-10.9 5.7-20 6.2-11.3.6-21.3-9.1-27.7-17.7-4.5 5.5-9.9 18.8-18.2 20.9-8.5 2-19.6-6.9-26.7-9.9-4 7.1-7.3 20.5-15.4 24.7-7.1 3.6-19.4-3-27.1-4.7-3.4 7.9-5.1 21.5-12.6 26.5-6.6 4.5-19.6-.4-27.7-1-.8 13.9-5.1 19.2-8.9 21.5-7.5 4-15.6-2-21.3 3-4.3 3.8-1.5 8.7-6 16.2-3.8 6.2-9.6 8.7-12.1 10.1-14.3 7.7-26.9 30.1-34.4 43.5-24.3 43.7-18 106-17.2 114.3 1.9 16.8 7.9 70 47.6 119.4 38.8 48.6 88.6 67 123.3 79.9 21.5 7.9 40.3 12.6 53.6 15.2 2.8-.4 38.6-4.5 39.5-14.1.4-6-13.2-13.7-21.3-16.8-4.7-1.9-8.9-2.6-12.1-3-9.9-1.7-38-7.5-59.7-31.8-14.7-16.6-19.8-34-22.2-42.5-3-11.3-8.7-32.8-.6-57.2 2-5.9 4.7-11.7 7.9-17.4-.2-.2-.6-.4-.8-.6-.8-.2-1.5-.4-2-1-.4-.2-.8-.4-1.2-.8-1.7-.2-2.8-1.2-4.3-2-1.9-1.2-3.8-2-5.7-3.4-2.2-1.7-4.7-2.8-6.6-4.5-.6-.2-1-.4-1.5-.8-3.6-2.6-7.5-5.3-11.1-8.1-2-1.7-4.3-3.2-6.2-5.3-.4-.4-1-.6-1.5-1.2l-.4-.4c-.4-.2-.8-.4-1.2-.8-2.8-2.2-5.9-5.5-8.3-8.5-2.4-1.7-4.5-3.8-6.2-6.2-.6-.8-1.2-1.7-1.7-2.2-1.5-1.5-2.6-3-3.8-4.7 0-.2-.2-.2-.2-.4l-.6-.6-.6-.6c-1.9-2.2-3.6-4.3-4.9-6.9-.2-.2-.2-.4-.2-.8-.2-.2-.4-.6-.8-.8-2.4-3.6-4.7-7.3-6.4-11.1-.6-.6-1-1.2-1.5-2 .6 1.2 0-.2-.2-.4-.2-.6-.6-1.2-.8-1.9-2.2-3.4-4-7.3-5.5-11.3-.4-.4-.8-1-1-1.7-1.5-3-2.2-6.2-3.6-9.1-1-2-2-4.5-2.6-6.9-.4-.6-.8-1.2-1-2-1.5-6-4.9-12.4-4.9-18.8-2.2-5.9-3.4-11.7-2.4-16.8v-.4c-.2-1.7-.4-3.4-.4-5.1-.4-.8-.4-1.9-.2-3 .2-.6.2-1 .4-1.5 0-.6.2-1.2.4-1.7 1.7-4 6.2-7.5 10.7-7.7 3-.8 6.2.4 8.9 2.4 2.8 2.2 3.8 5.5 5.1 8.7.2.8.2 1.7.2 2.4.2 1 .2 2 .4 3.2.6 3.4 1.2 6.9 1.9 10.3.8 1 1 2 1 3 .2.4.4.8.6 1.5 1.2 6 2.4 11.7 3.6 17.7 1.2 1.9 1.9 4 2.6 6 .2.4.2.8.2 1 0 .2.2.4.2.6 0 .2.2.6.2.8 1.5 2.6 2.4 5.5 3.6 8.1.6 1.7 1.7 3 2.2 4.5.4.8.6 2 1.2 2.6.8.8 1.2 1.9 1.5 2.8l.6.6c.4.6.8 1.5.8 2 1.5 2.2 2.8 4.3 4.3 6.4v.2c1.7 2.6 3.4 5.1 5.5 7.3.4.4.6.8.6 1.2 0 .2.2.2.2.4 2.4 2.6 4.9 5.5 7.3 8.1.4.4 1 .8 1.2 1.2.4.4.6.8 1 1.2 0 .2.2.2.2.4.2.4.4.6.8 1l.2.2c5.3 5.1 11.1 9.8 16.4 14.7 10.1 8.1 22 15.2 34.2 20.5 5.7-3.6 9.1-4.7 12.4-10.3 3.6-6.4 4.9-14.1 4-23.9-1.5-17.2-.2-34.8 2.6-52.6 1.2 2.2 24.9 47.3 23.9 65.3-.4 7.1-3.8 11.3-3.8 11.3-1 1.7-3 3.8-5.9 6-1.7 1.2-3 2.2-5.7 4.7-2.2 2-3 2.8-3.4 4-.4 1.7-.4 3.4.4 4.9 1.7 3 6.4 3.2 9.3 3.4 10.9.4 16.4 1.9 23.5-.6 3.8-1.5 3.8-2 7.1-2.8 3.8-.8 6.4-.4 14.3.6 5.5.8 10.9 1.2 16.4 1.9 6.2.8 9.6 1 11.7-.8 1.9-1.5 2.8-4.3 2-6-1-2.6-5.3-3-6.6-3.6-13.6-4-31.4-16.8-31.4-17-3-5.3 3.4-30.7 25.9-51.4 14.5-13.4 34.2-21.5 56.5-21.6 48.8-.6 97.5-.2 146.3-.2 24.5 1.1 27.8-2 23.5-26.2z"/>
		<path fill="#272727" d="M454 521.6c37.6 6.9 84.2 22.8 118.4 23.7 4.5.2 12.8 0 20-5.3 5.3-3.8 9.3-10.3 11.7-20.2h-39.9c-33.2 0-33 .4-38.6 0-42.9-2.6-63.1-12.6-63.1-12.6-25.1-12.8-28.6-34.4-37.2-32.2-4.7 1.2-9.9 9.3-10.1 42.1 17.1.8 30.7 3 38.8 4.5z"/>
		<circle fill="#FCFCFC" cx="545.6" cy="416" r="70.8"/>
		<circle fill="#272727" cx="527.8" cy="430.5" r="18.2"/>
		<path fill="#272727" d="M265.9 727.4c-5.7-16.8-11.7-36.2-9.1-37.4 2.2-1 8.3 10.3 16.2 21.3 5.1 7.1 35 46.9 81.7 59.3 13.7 3.6 34.8 9.3 51.6-2.4 1.7-1 19-13.6 16.8-31.6-2.2-16-18.8-27.9-32.6-27.1-13.2.8-22.6 11.1-23 24.9-.2 4.9 0 10.3 6.4 10.7 5.9.4 6.4-4.3 6.6-9.1.4-5.9 3.2-10.5 9.1-11.9s11.3 0 15.6 4.7c10.5 11.5 4.7 29.9-11.1 34.4-17.8 5.3-36.4-8.1-38-27.3-1.5-16.4 8.5-32.4 24.5-39.5s35.2-2.8 48.2 10.7c28.3 29.7 18 74.9-21.5 92.2-9.8 4.3-17.7 6-24.3 7.1-7.3 1-41.6 6-73.6-15.6-38.8-26.3-43.3-70.6-43.9-76.4-8.5-5.5-13.2-7.7-14.1-6.4-1.3 1.1 3.6 7.7 14.5 19.4z"/>
	</g>
	</svg>